<svg width="38" height="38" viewBox="0 0 38 38" fill="none" xmlns="http://www.w3.org/2000/svg">
<g filter="url(#filter0_d_105_18624)">
<circle cx="17" cy="17" r="11.4545" fill="url(#paint0_linear_105_18624)"/>
<circle cx="17" cy="17" r="11.8545" stroke="url(#paint1_linear_105_18624)" stroke-width="0.8"/>
</g>
<g filter="url(#filter1_f_105_18624)">
<path d="M8.58805 9.22522C9.57317 8.15937 10.7519 7.29044 12.0614 6.66469L12.9987 8.6262C11.9377 9.13319 10.9827 9.8372 10.1845 10.7008L8.58805 9.22522Z" fill="white"/>
</g>
<circle cx="17" cy="17" r="9.65" fill="url(#paint2_linear_105_18624)"/>
<circle cx="17" cy="17" r="9.65" stroke="url(#paint3_linear_105_18624)" stroke-width="0.7"/>
<circle cx="17" cy="17" r="9.65" stroke="url(#paint4_linear_105_18624)" stroke-opacity="0.27" stroke-width="0.7"/>
<g filter="url(#filter2_f_105_18624)">
<path d="M23.5587 23.0295C22.8191 23.8339 21.9379 24.4955 20.959 24.981L20.6867 24.4321C21.5983 23.9799 22.4189 23.3639 23.1076 22.6148L23.5587 23.0295Z" fill="white" fill-opacity="0.8"/>
</g>
<circle cx="17" cy="17" r="5.97727" stroke="url(#paint5_linear_105_18624)" stroke-opacity="0.56" stroke-width="0.5"/>
<path d="M17.4314 25C21.649 24.7616 24.9998 21.0499 24.9998 16.5061C24.9998 11.8083 21.418 8 16.9998 8C12.5815 8 8.99976 11.8083 8.99976 16.5061C8.99976 19.2777 10.2465 21.7397 12.1761 23.2926L16.8326 12.6572C16.8753 12.5597 17.0207 12.5876 17.0242 12.694L17.4314 25Z" fill="url(#paint6_linear_105_18624)"/>
<path d="M15.9998 24.5L16.9689 12.3852C16.9772 12.2823 17.1169 12.2578 17.1597 12.3518L21.9998 23C20.9998 24.5 19.0681 25 16.9998 25C16.4998 25 16.1629 24.5076 15.9998 24.5Z" fill="#DF9C37"/>
<path d="M17.9998 24.9886L17.0304 12.3982C17.0225 12.2944 16.881 12.2704 16.8392 12.3656L11.9998 23.3828C13.5309 24.3978 15.4386 25 17.5069 25C17.6723 25 17.8366 24.9962 17.9998 24.9886Z" fill="#FBCA39"/>
<defs>
<filter id="filter0_d_105_18624" x="0.945361" y="0.945361" width="36.1092" height="36.109" filterUnits="userSpaceOnUse" color-interpolation-filters="sRGB">
<feFlood flood-opacity="0" result="BackgroundImageFix"/>
<feColorMatrix in="SourceAlpha" type="matrix" values="0 0 0 0 0 0 0 0 0 0 0 0 0 0 0 0 0 0 127 0" result="hardAlpha"/>
<feOffset dx="2" dy="2"/>
<feGaussianBlur stdDeviation="2.9"/>
<feComposite in2="hardAlpha" operator="out"/>
<feColorMatrix type="matrix" values="0 0 0 0 0.466667 0 0 0 0 0.293144 0 0 0 0 0.00972222 0 0 0 0.78 0"/>
<feBlend mode="normal" in2="BackgroundImageFix" result="effect1_dropShadow_105_18624"/>
<feBlend mode="normal" in="SourceGraphic" in2="effect1_dropShadow_105_18624" result="shape"/>
</filter>
<filter id="filter1_f_105_18624" x="6.58801" y="4.66479" width="8.41064" height="8.03589" filterUnits="userSpaceOnUse" color-interpolation-filters="sRGB">
<feFlood flood-opacity="0" result="BackgroundImageFix"/>
<feBlend mode="normal" in="SourceGraphic" in2="BackgroundImageFix" result="shape"/>
<feGaussianBlur stdDeviation="1" result="effect1_foregroundBlur_105_18624"/>
</filter>
<filter id="filter2_f_105_18624" x="19.6868" y="21.6147" width="4.87195" height="4.36621" filterUnits="userSpaceOnUse" color-interpolation-filters="sRGB">
<feFlood flood-opacity="0" result="BackgroundImageFix"/>
<feBlend mode="normal" in="SourceGraphic" in2="BackgroundImageFix" result="shape"/>
<feGaussianBlur stdDeviation="0.5" result="effect1_foregroundBlur_105_18624"/>
</filter>
<linearGradient id="paint0_linear_105_18624" x1="5.54541" y1="5.54541" x2="28.4545" y2="28.4545" gradientUnits="userSpaceOnUse">
<stop stop-color="#FBEC40"/>
<stop offset="1" stop-color="#EFBB16"/>
</linearGradient>
<linearGradient id="paint1_linear_105_18624" x1="6" y1="6" x2="28" y2="28" gradientUnits="userSpaceOnUse">
<stop stop-color="#B78F0F"/>
<stop offset="1" stop-color="#AC6B11"/>
</linearGradient>
<linearGradient id="paint2_linear_105_18624" x1="7" y1="7" x2="27" y2="27" gradientUnits="userSpaceOnUse">
<stop stop-color="#F9D835"/>
<stop offset="0.0001" stop-color="#F9D835"/>
<stop offset="1" stop-color="#EAA800"/>
</linearGradient>
<linearGradient id="paint3_linear_105_18624" x1="7" y1="7" x2="27" y2="27" gradientUnits="userSpaceOnUse">
<stop stop-color="#E4AC1C"/>
<stop offset="1" stop-color="#F8E53C"/>
</linearGradient>
<linearGradient id="paint4_linear_105_18624" x1="27" y1="7.71429" x2="7.71429" y2="27" gradientUnits="userSpaceOnUse">
<stop stop-color="#E1AB19"/>
<stop offset="1" stop-color="#F7D836"/>
</linearGradient>
<linearGradient id="paint5_linear_105_18624" x1="11.2727" y1="11.2727" x2="23.9998" y2="23.5" gradientUnits="userSpaceOnUse">
<stop offset="0.09912" stop-color="#FBBE24"/>
<stop offset="1" stop-color="#D58207"/>
</linearGradient>
<linearGradient id="paint6_linear_105_18624" x1="8.99976" y1="8" x2="25.98" y2="23.9699" gradientUnits="userSpaceOnUse">
<stop stop-color="#FCF432"/>
<stop offset="1" stop-color="#F58500"/>
</linearGradient>
</defs>
</svg>
