<svg width="24" height="24" viewBox="0 0 24 24" fill="none" xmlns="http://www.w3.org/2000/svg">
<path fill-rule="evenodd" clip-rule="evenodd" d="M19.3303 5.79333L16.0983 2.65111C15.6697 2.23444 15.088 2 14.4823 2H6.28571C5.02286 2 4 2.99444 4 4.22222V19.7778C4 21.0056 5.02286 22 6.28571 22H17.7143C18.9771 22 20 21.0056 20 19.7778V7.36444C20 6.77556 19.7589 6.21 19.3303 5.79333Z" fill="#5B87F8" stroke="#5B87F8" stroke-width="1.5" stroke-linecap="round" stroke-linejoin="round"/>
<path d="M7.70215 19H6.76465L6.77051 18.2617H7.70215C7.91504 18.2617 8.09473 18.2129 8.24121 18.1152C8.3877 18.0156 8.49902 17.8691 8.5752 17.6758C8.65137 17.4805 8.68945 17.2432 8.68945 16.9639V16.7676C8.68945 16.5566 8.66797 16.3711 8.625 16.2109C8.58203 16.0488 8.51855 15.9131 8.43457 15.8037C8.35059 15.6943 8.24609 15.6123 8.12109 15.5576C7.99805 15.5029 7.85645 15.4756 7.69629 15.4756H6.74707V14.7344H7.69629C7.98535 14.7344 8.24902 14.7832 8.4873 14.8809C8.72754 14.9785 8.93457 15.1182 9.1084 15.2998C9.28418 15.4814 9.41992 15.6963 9.51562 15.9443C9.61133 16.1924 9.65918 16.4688 9.65918 16.7734V16.9639C9.65918 17.2666 9.61133 17.543 9.51562 17.793C9.41992 18.041 9.28418 18.2559 9.1084 18.4375C8.93457 18.6172 8.72852 18.7559 8.49023 18.8535C8.25195 18.9512 7.98926 19 7.70215 19ZM7.30664 14.7344V19H6.35156V14.7344H7.30664ZM13.7988 16.7734V16.9639C13.7988 17.2881 13.7539 17.5791 13.6641 17.8369C13.5762 18.0947 13.4502 18.3145 13.2861 18.4961C13.124 18.6777 12.9307 18.8174 12.7061 18.915C12.4834 19.0107 12.2363 19.0586 11.9648 19.0586C11.6934 19.0586 11.4453 19.0107 11.2207 18.915C10.9961 18.8174 10.8008 18.6777 10.6348 18.4961C10.4707 18.3145 10.3438 18.0947 10.2539 17.8369C10.1641 17.5791 10.1191 17.2881 10.1191 16.9639V16.7734C10.1191 16.4492 10.1641 16.1582 10.2539 15.9004C10.3438 15.6406 10.4697 15.4199 10.6318 15.2383C10.7959 15.0566 10.9902 14.918 11.2148 14.8223C11.4395 14.7246 11.6875 14.6758 11.959 14.6758C12.2305 14.6758 12.4785 14.7246 12.7031 14.8223C12.9277 14.918 13.1211 15.0566 13.2832 15.2383C13.4473 15.4199 13.5742 15.6406 13.6641 15.9004C13.7539 16.1582 13.7988 16.4492 13.7988 16.7734ZM12.835 16.9639V16.7676C12.835 16.5508 12.8154 16.3594 12.7764 16.1934C12.7373 16.0254 12.6807 15.8848 12.6064 15.7715C12.5322 15.6582 12.4404 15.5732 12.3311 15.5166C12.2217 15.458 12.0977 15.4287 11.959 15.4287C11.8145 15.4287 11.6885 15.458 11.5811 15.5166C11.4736 15.5732 11.3828 15.6582 11.3086 15.7715C11.2363 15.8848 11.1807 16.0254 11.1416 16.1934C11.1045 16.3594 11.0859 16.5508 11.0859 16.7676V16.9639C11.0859 17.1787 11.1045 17.3701 11.1416 17.5381C11.1807 17.7041 11.2373 17.8447 11.3115 17.96C11.3857 18.0752 11.4766 18.1621 11.584 18.2207C11.6934 18.2793 11.8203 18.3086 11.9648 18.3086C12.1035 18.3086 12.2266 18.2793 12.334 18.2207C12.4434 18.1621 12.5352 18.0752 12.6094 17.96C12.6836 17.8447 12.7393 17.7041 12.7764 17.5381C12.8154 17.3701 12.835 17.1787 12.835 16.9639ZM16.8369 17.5703H17.7861C17.7705 17.8633 17.6904 18.1221 17.5459 18.3467C17.4033 18.5693 17.2051 18.7441 16.9512 18.8711C16.6973 18.9961 16.3955 19.0586 16.0459 19.0586C15.7666 19.0586 15.5166 19.0107 15.2959 18.915C15.0752 18.8193 14.8877 18.6826 14.7334 18.5049C14.5811 18.3252 14.4639 18.1094 14.3818 17.8574C14.3018 17.6035 14.2617 17.3174 14.2617 16.999V16.7383C14.2617 16.4199 14.3037 16.1338 14.3877 15.8799C14.4717 15.626 14.5918 15.4092 14.748 15.2295C14.9043 15.0498 15.0918 14.9121 15.3105 14.8164C15.5293 14.7207 15.7734 14.6729 16.043 14.6729C16.4062 14.6729 16.7129 14.7383 16.9629 14.8691C17.2129 15 17.4062 15.1797 17.543 15.4082C17.6816 15.6367 17.7646 15.8975 17.792 16.1904H16.8398C16.832 16.0244 16.8008 15.8848 16.7461 15.7715C16.6914 15.6562 16.6074 15.5693 16.4941 15.5107C16.3809 15.4521 16.2305 15.4229 16.043 15.4229C15.9062 15.4229 15.7861 15.4482 15.6826 15.499C15.5811 15.5498 15.4961 15.6289 15.4277 15.7363C15.3613 15.8438 15.3115 15.9805 15.2783 16.1465C15.2451 16.3105 15.2285 16.5059 15.2285 16.7324V16.999C15.2285 17.2236 15.2432 17.418 15.2725 17.582C15.3018 17.7461 15.3486 17.8818 15.4131 17.9893C15.4795 18.0967 15.5645 18.1768 15.668 18.2295C15.7715 18.2822 15.8975 18.3086 16.0459 18.3086C16.2158 18.3086 16.3574 18.2822 16.4707 18.2295C16.584 18.1748 16.6709 18.0928 16.7314 17.9834C16.792 17.874 16.8271 17.7363 16.8369 17.5703Z" fill="white"/>
<path d="M20 6.94908C20 6.9772 19.9772 7 19.9491 7H16C15.448 7 15 6.552 15 6V2.23182C15 2.10379 15.1038 2 15.2318 2C15.7237 2 16.1954 2.19539 16.5432 2.54319L18 4L19.3289 5.3289C19.7586 5.7586 20 6.3414 20 6.94908Z" fill="#2955C6" stroke="#2955C6" stroke-width="1.5" stroke-linecap="round" stroke-linejoin="round"/>
</svg>
