<svg xmlns="http://www.w3.org/2000/svg" width="30" height="30" viewBox="0 0 30 30" fill="none">
  <g filter="url(#filter0_d_322_15273)">
    <circle cx="13.0029" cy="13.0029" r="8.00293" fill="url(#paint0_linear_322_15273)"/>
    <circle cx="13.0029" cy="13.0029" r="8.40293" stroke="url(#paint1_linear_322_15273)" stroke-width="0.8"/>
  </g>
  <g filter="url(#filter1_f_322_15273)">
    <path d="M7.1258 7.57097C7.81407 6.82629 8.6376 6.2192 9.55254 5.78201L10.2074 7.15245C9.46608 7.50667 8.79885 7.99854 8.24121 8.60189L7.1258 7.57097Z" fill="white"/>
  </g>
  <circle cx="13.0038" cy="13.0027" r="5.8745" fill="url(#paint2_linear_322_15273)"/>
  <circle cx="13.0038" cy="13.0027" r="5.8745" stroke="url(#paint3_linear_322_15273)" stroke-width="0.7"/>
  <circle cx="13.0038" cy="13.0027" r="5.8745" stroke="url(#paint4_linear_322_15273)" stroke-opacity="0.27" stroke-width="0.7"/>
  <g filter="url(#filter2_f_322_15273)">
    <path d="M17.5861 17.2154C17.0694 17.7774 16.4537 18.2396 15.7698 18.5789L15.5796 18.1953C16.2165 17.8794 16.7898 17.449 17.271 16.9256L17.5861 17.2154Z" fill="white" fill-opacity="0.8"/>
  </g>
  <circle cx="13.0029" cy="13.0023" r="4.25098" stroke="url(#paint5_linear_322_15273)" stroke-opacity="0.56" stroke-width="0.5"/>
  <path d="M13.2188 16.9976C15.3281 16.8854 17.0039 15.1396 17.0039 13.0023C17.0039 10.7926 15.2126 9.00134 13.0029 9.00134C10.7933 9.00134 9.00195 10.7926 9.00195 13.0023C9.00195 14.306 9.62546 15.464 10.5905 16.1945L12.8319 11.3798C12.8763 11.2845 13.0188 11.3134 13.0225 11.4184L13.2188 16.9976Z" fill="url(#paint6_linear_322_15273)"/>
  <path d="M12.7891 16.9978L12.9854 11.4187C12.9891 11.3136 13.1316 11.2847 13.176 11.38L15.4174 16.1947C14.7467 16.7024 13.911 17.0035 13.005 17.0035C12.9325 17.0035 12.8605 17.0016 12.7891 16.9978Z" fill="#CE7D00"/>
  <path d="M13.2031 16.9978L13.0068 11.4187C13.0031 11.3136 12.8606 11.2847 12.8162 11.38L10.5748 16.1947C11.2455 16.7024 12.0812 17.0035 12.9872 17.0035C13.0597 17.0035 13.1316 17.0016 13.2031 16.9978Z" fill="#FFF175"/>
  <defs>
    <filter id="filter0_d_322_15273" x="0.400195" y="0.399951" width="29.2055" height="29.206" filterUnits="userSpaceOnUse" color-interpolation-filters="sRGB">
      <feFlood flood-opacity="0" result="BackgroundImageFix"/>
      <feColorMatrix in="SourceAlpha" type="matrix" values="0 0 0 0 0 0 0 0 0 0 0 0 0 0 0 0 0 0 127 0" result="hardAlpha"/>
      <feOffset dx="2" dy="2"/>
      <feGaussianBlur stdDeviation="2.9"/>
      <feComposite in2="hardAlpha" operator="out"/>
      <feColorMatrix type="matrix" values="0 0 0 0 0.466667 0 0 0 0 0.293144 0 0 0 0 0.00972222 0 0 0 0.5 0"/>
      <feBlend mode="normal" in2="BackgroundImageFix" result="effect1_dropShadow_322_15273"/>
      <feBlend mode="normal" in="SourceGraphic" in2="effect1_dropShadow_322_15273" result="shape"/>
    </filter>
    <filter id="filter1_f_322_15273" x="5.12598" y="3.78198" width="7.08105" height="6.81995" filterUnits="userSpaceOnUse" color-interpolation-filters="sRGB">
      <feFlood flood-opacity="0" result="BackgroundImageFix"/>
      <feBlend mode="normal" in="SourceGraphic" in2="BackgroundImageFix" result="shape"/>
      <feGaussianBlur stdDeviation="1" result="effect1_foregroundBlur_322_15273"/>
    </filter>
    <filter id="filter2_f_322_15273" x="14.5791" y="15.9257" width="4.00684" height="3.6532" filterUnits="userSpaceOnUse" color-interpolation-filters="sRGB">
      <feFlood flood-opacity="0" result="BackgroundImageFix"/>
      <feBlend mode="normal" in="SourceGraphic" in2="BackgroundImageFix" result="shape"/>
      <feGaussianBlur stdDeviation="0.5" result="effect1_foregroundBlur_322_15273"/>
    </filter>
    <linearGradient id="paint0_linear_322_15273" x1="5" y1="5" x2="21.0059" y2="21.0059" gradientUnits="userSpaceOnUse">
      <stop stop-color="#FBEC40"/>
      <stop offset="1" stop-color="#EFBB16"/>
    </linearGradient>
    <linearGradient id="paint1_linear_322_15273" x1="5.31761" y1="5.31761" x2="20.6883" y2="20.6883" gradientUnits="userSpaceOnUse">
      <stop stop-color="#B78F0F"/>
      <stop offset="1" stop-color="#AC6B11"/>
    </linearGradient>
    <linearGradient id="paint2_linear_322_15273" x1="6.7793" y1="6.7782" x2="19.2283" y2="19.2272" gradientUnits="userSpaceOnUse">
      <stop stop-color="#F9D835"/>
      <stop offset="0.0001" stop-color="#F9D835"/>
      <stop offset="1" stop-color="#EAA800"/>
    </linearGradient>
    <linearGradient id="paint3_linear_322_15273" x1="6.7793" y1="6.7782" x2="19.2283" y2="19.2272" gradientUnits="userSpaceOnUse">
      <stop stop-color="#E4AC1C"/>
      <stop offset="1" stop-color="#F8E53C"/>
    </linearGradient>
    <linearGradient id="paint4_linear_322_15273" x1="19.2283" y1="7.2228" x2="7.2239" y2="19.2272" gradientUnits="userSpaceOnUse">
      <stop stop-color="#E1AB19"/>
      <stop offset="1" stop-color="#F7D836"/>
    </linearGradient>
    <linearGradient id="paint5_linear_322_15273" x1="9.00195" y1="9.00134" x2="17.8929" y2="17.5431" gradientUnits="userSpaceOnUse">
      <stop offset="0.09912" stop-color="#FBBE24"/>
      <stop offset="1" stop-color="#D58207"/>
    </linearGradient>
    <linearGradient id="paint6_linear_322_15273" x1="9.00195" y1="9.00134" x2="17.0039" y2="17.0033" gradientUnits="userSpaceOnUse">
      <stop stop-color="#FCF432"/>
      <stop offset="1" stop-color="#F58500"/>
    </linearGradient>
  </defs>
</svg>