<svg width="24" height="24" viewBox="0 0 24 24" fill="none" xmlns="http://www.w3.org/2000/svg">
<path fill-rule="evenodd" clip-rule="evenodd" d="M19.3303 5.79333L16.0983 2.65111C15.6697 2.23444 15.088 2 14.4823 2H6.28571C5.02286 2 4 2.99444 4 4.22222V19.7778C4 21.0056 5.02286 22 6.28571 22H17.7143C18.9771 22 20 21.0056 20 19.7778V7.36444C20 6.77556 19.7589 6.21 19.3303 5.79333Z" fill="#FD964C" stroke="#FD964C" stroke-width="1.5" stroke-linecap="round" stroke-linejoin="round"/>
<path d="M8.44824 17.6758V14.7344H9.39746V17.6758C9.39746 17.9609 9.33301 18.207 9.2041 18.4141C9.07715 18.6191 8.9043 18.7783 8.68555 18.8916C8.46875 19.0029 8.22363 19.0586 7.9502 19.0586C7.66895 19.0586 7.41895 19.0117 7.2002 18.918C6.98145 18.8223 6.80957 18.6768 6.68457 18.4814C6.56152 18.2842 6.5 18.0332 6.5 17.7285H7.45508C7.45508 17.8789 7.47363 17.998 7.51074 18.0859C7.5498 18.1719 7.60645 18.2324 7.68066 18.2676C7.75488 18.3027 7.84473 18.3203 7.9502 18.3203C8.05176 18.3203 8.13965 18.2959 8.21387 18.2471C8.28809 18.1963 8.3457 18.123 8.38672 18.0273C8.42773 17.9297 8.44824 17.8125 8.44824 17.6758Z" fill="white"/>
<path d="M11.7793 17.5176H10.707V16.7764H11.7793C11.9375 16.7764 12.0645 16.75 12.1602 16.6973C12.2578 16.6445 12.3291 16.5723 12.374 16.4805C12.4209 16.3867 12.4443 16.2812 12.4443 16.1641C12.4443 16.043 12.4209 15.9307 12.374 15.8271C12.3291 15.7217 12.2578 15.6367 12.1602 15.5723C12.0645 15.5078 11.9375 15.4756 11.7793 15.4756H11.0527V19H10.0977V14.7344H11.7793C12.1191 14.7344 12.4102 14.7959 12.6523 14.9189C12.8965 15.042 13.083 15.2109 13.2119 15.4258C13.3428 15.6387 13.4082 15.8828 13.4082 16.1582C13.4082 16.4336 13.3428 16.6729 13.2119 16.876C13.083 17.0791 12.8965 17.2373 12.6523 17.3506C12.4102 17.4619 12.1191 17.5176 11.7793 17.5176Z" fill="white"/>
<path d="M17.4248 16.7471V18.4668C17.3545 18.5469 17.2471 18.6328 17.1025 18.7246C16.96 18.8164 16.7773 18.8955 16.5547 18.9619C16.332 19.0264 16.0664 19.0586 15.7578 19.0586C15.4785 19.0586 15.2246 19.0137 14.9961 18.9238C14.7676 18.832 14.5713 18.6982 14.4072 18.5225C14.2432 18.3447 14.1162 18.1279 14.0264 17.8721C13.9385 17.6162 13.8945 17.3232 13.8945 16.9932V16.7412C13.8945 16.4111 13.9385 16.1182 14.0264 15.8623C14.1143 15.6064 14.2383 15.3906 14.3984 15.2148C14.5586 15.0371 14.749 14.9023 14.9697 14.8105C15.1904 14.7188 15.4346 14.6729 15.7021 14.6729C16.083 14.6729 16.3945 14.7344 16.6367 14.8574C16.8789 14.9785 17.0625 15.1465 17.1875 15.3613C17.3145 15.5762 17.3926 15.8232 17.4219 16.1025H16.502C16.4824 15.96 16.4434 15.8369 16.3848 15.7334C16.3281 15.6299 16.2471 15.5508 16.1416 15.4961C16.0361 15.4395 15.8994 15.4111 15.7314 15.4111C15.5967 15.4111 15.4746 15.4395 15.3652 15.4961C15.2578 15.5508 15.167 15.6338 15.0928 15.7451C15.0186 15.8564 14.9619 15.9951 14.9229 16.1611C14.8838 16.3252 14.8643 16.5166 14.8643 16.7354V16.9932C14.8643 17.2119 14.8838 17.4043 14.9229 17.5703C14.9639 17.7363 15.0234 17.875 15.1016 17.9863C15.1797 18.0957 15.2783 18.1787 15.3975 18.2354C15.5186 18.292 15.6592 18.3203 15.8193 18.3203C15.9443 18.3203 16.0498 18.3105 16.1357 18.291C16.2217 18.2695 16.292 18.2432 16.3467 18.2119C16.4014 18.1787 16.4424 18.1484 16.4697 18.1211V17.4121H15.7109V16.7471H17.4248Z" fill="white"/>
<path d="M20 6.94908C20 6.9772 19.9772 7 19.9491 7H16C15.448 7 15 6.552 15 6V2.23182C15 2.10379 15.1038 2 15.2318 2C15.7237 2 16.1954 2.19539 16.5432 2.54319L18 4L19.3289 5.3289C19.7586 5.7586 20 6.3414 20 6.94908Z" fill="#D56E24" stroke="#D56E24" stroke-width="1.5" stroke-linecap="round" stroke-linejoin="round"/>
</svg>
