<svg xmlns="http://www.w3.org/2000/svg" width="123" height="27" viewBox="0 0 123 27" fill="none">
    <path d="M36.8272 5.41874H39.1305L34.078 18.7218C33.5497 20.1414 32.8067 21.2187 31.849 21.9536C30.9079 22.7052 29.8182 23.0391 28.5798 22.9557V20.9264C30.0989 21.0433 31.2133 20.1917 31.9232 18.371L32.1462 17.8951L26.7471 5.41874H29.0504L33.2608 15.2394L36.8272 5.41874ZM50.8977 16.3669C49.6264 17.6363 48.0826 18.2708 46.2664 18.2708C44.45 18.2708 42.9062 17.6363 41.6349 16.3669C40.3799 15.0975 39.7526 13.5358 39.7526 11.6819C39.7526 9.82802 40.3799 8.26643 41.6349 6.99705C42.9062 5.72768 44.45 5.09309 46.2664 5.09309C48.0826 5.09309 49.6264 5.72768 50.8977 6.99705C52.169 8.26643 52.8048 9.82802 52.8048 11.6819C52.8048 13.5358 52.169 15.0975 50.8977 16.3669ZM46.2664 16.1413C47.5046 16.1413 48.5448 15.7154 49.3869 14.8636C50.229 14.0119 50.65 12.9513 50.65 11.6819C50.65 10.4126 50.229 9.352 49.3869 8.50024C48.5448 7.64845 47.5046 7.2225 46.2664 7.2225C45.0445 7.2225 44.0125 7.64845 43.1704 8.50024C42.3283 9.352 41.9072 10.4126 41.9072 11.6819C41.9072 12.9513 42.3283 14.0119 43.1704 14.8636C44.0125 15.7154 45.0445 16.1413 46.2664 16.1413ZM63.8895 5.41874H66.0441V17.9451H63.8895V16.1413C63.0144 17.5609 61.677 18.2708 59.8772 18.2708C58.4241 18.2708 57.2603 17.8116 56.3852 16.893C55.51 15.9576 55.0725 14.6967 55.0725 13.1099V5.41874H57.2271V12.9846C57.2271 14.0035 57.4996 14.7969 58.0445 15.3646C58.5893 15.9159 59.3406 16.1915 60.2982 16.1915C61.3716 16.1915 62.2384 15.8575 62.8987 15.1892C63.5592 14.5045 63.8895 13.4607 63.8895 12.0578V5.41874ZM75.4916 5.09309C76.9446 5.09309 78.1081 5.56067 78.9839 6.49603C79.8589 7.41459 80.2963 8.66724 80.2963 10.2539V17.9451H78.1413V10.3792C78.1413 9.36035 77.8692 8.57538 77.3239 8.0242C76.7794 7.45638 76.0281 7.17243 75.0705 7.17243C73.9973 7.17243 73.1304 7.5148 72.47 8.19956C71.8097 8.86769 71.4792 9.90318 71.4792 11.3061V17.9451H69.3246V5.41874H71.4792V7.2225C72.3544 5.80292 73.6918 5.09309 75.4916 5.09309ZM84.8152 12.684C85.0299 13.8032 85.533 14.6716 86.326 15.2895C87.1345 15.9075 88.1253 16.2166 89.2977 16.2166C90.9325 16.2166 92.121 15.6068 92.8646 14.3876L94.6972 15.4397C93.4916 17.3272 91.6754 18.2708 89.2483 18.2708C87.2836 18.2708 85.682 17.6529 84.4434 16.4169C83.2217 15.1643 82.6109 13.5859 82.6109 11.6819C82.6109 9.79459 83.2137 8.22463 84.4191 6.97198C85.6238 5.7194 87.1848 5.09309 89.0999 5.09309C90.9163 5.09309 92.394 5.7444 93.533 7.04714C94.689 8.33322 95.2667 9.88646 95.2667 11.707C95.2667 12.0243 95.2415 12.35 95.1921 12.684H84.8152ZM89.0999 7.14734C87.9439 7.14734 86.9864 7.48145 86.2264 8.14949C85.4674 8.8009 84.9966 9.67773 84.8152 10.78H93.0874C92.906 9.59423 92.4434 8.69231 91.7005 8.07434C90.9577 7.45638 90.0907 7.14734 89.0999 7.14734ZM99.1172 8.8009C99.1172 9.28521 99.357 9.67773 99.8358 9.97832C100.315 10.2623 100.892 10.4961 101.57 10.6798C102.246 10.8468 102.923 11.0473 103.6 11.2811C104.277 11.4982 104.855 11.8824 105.334 12.4335C105.813 12.968 106.052 13.6612 106.052 14.513C106.052 15.6485 105.614 16.5589 104.739 17.2436C103.881 17.9285 102.775 18.2708 101.42 18.2708C100.216 18.2708 99.1836 18.0036 98.3248 17.4692C97.4662 16.9346 96.8552 16.2247 96.4925 15.3397L98.3492 14.2625C98.5478 14.8636 98.9196 15.3397 99.4639 15.6904C100.009 16.0412 100.661 16.2166 101.42 16.2166C102.131 16.2166 102.717 16.0829 103.179 15.8156C103.642 15.5317 103.873 15.0975 103.873 14.513C103.873 14.0286 103.633 13.6444 103.154 13.3605C102.675 13.0597 102.098 12.826 101.42 12.659C100.744 12.4753 100.067 12.2665 99.3893 12.0327C98.713 11.7989 98.1352 11.4147 97.6558 10.8802C97.177 10.3458 96.938 9.66102 96.938 8.82589C96.938 7.74032 97.3504 6.84677 98.1758 6.14528C99.0184 5.44381 100.067 5.09309 101.322 5.09309C102.328 5.09309 103.22 5.32688 103.997 5.79456C104.789 6.24551 105.384 6.88012 105.78 7.69854L103.971 8.72567C103.526 7.65682 102.643 7.12236 101.322 7.12236C100.711 7.12236 100.191 7.27266 99.7612 7.57332C99.3319 7.85718 99.1172 8.26643 99.1172 8.8009ZM109.572 3.13896C109.16 3.13896 108.813 2.99698 108.532 2.71305C108.251 2.42911 108.111 2.08673 108.111 1.68588C108.111 1.28505 108.251 0.94265 108.532 0.658716C108.813 0.358093 109.16 0.207764 109.572 0.207764C109.968 0.207764 110.307 0.358093 110.588 0.658716C110.868 0.94265 111.008 1.28505 111.008 1.68588C111.008 2.08673 110.868 2.42911 110.588 2.71305C110.307 2.99698 109.968 3.13896 109.572 3.13896ZM108.482 17.9451V5.41874H110.637V17.9451H108.482ZM115.758 8.8009C115.758 9.28521 115.997 9.67773 116.476 9.97832C116.955 10.2623 117.532 10.4961 118.21 10.6798C118.887 10.8468 119.563 11.0473 120.24 11.2811C120.918 11.4982 121.495 11.8824 121.974 12.4335C122.453 12.968 122.693 13.6612 122.693 14.513C122.693 15.6485 122.254 16.5589 121.379 17.2436C120.521 17.9285 119.415 18.2708 118.061 18.2708C116.856 18.2708 115.824 18.0036 114.965 17.4692C114.106 16.9346 113.495 16.2247 113.132 15.3397L114.99 14.2625C115.188 14.8636 115.56 15.3397 116.105 15.6904C116.649 16.0412 117.301 16.2166 118.061 16.2166C118.771 16.2166 119.357 16.0829 119.819 15.8156C120.282 15.5317 120.513 15.0975 120.513 14.513C120.513 14.0286 120.274 13.6444 119.795 13.3605C119.316 13.0597 118.738 12.826 118.061 12.659C117.384 12.4753 116.707 12.2665 116.03 12.0327C115.353 11.7989 114.775 11.4147 114.296 10.8802C113.818 10.3458 113.578 9.66102 113.578 8.82589C113.578 7.74032 113.991 6.84677 114.817 6.14528C115.658 5.44381 116.707 5.09309 117.962 5.09309C118.969 5.09309 119.86 5.32688 120.637 5.79456C121.429 6.24551 122.024 6.88012 122.42 7.69854L120.612 8.72567C120.166 7.65682 119.283 7.12236 117.962 7.12236C117.351 7.12236 116.831 7.27266 116.401 7.57332C115.972 7.85718 115.758 8.26643 115.758 8.8009Z" fill="#211F1F"/>
    <path d="M17.3524 20.08C19.0854 18.7061 20.351 16.819 20.972 14.6822C21.5933 12.5454 21.539 10.2657 20.8169 8.16163C20.0948 6.0576 18.7411 4.23428 16.9446 2.94644C15.1482 1.65861 12.9989 0.970611 10.7971 0.978584C8.59531 0.986575 6.45091 1.69012 4.66369 2.99094C2.87641 4.29172 1.5355 6.1248 0.828354 8.23406C0.121189 10.3433 0.0830845 12.6234 0.719345 14.7556C1.35564 16.8877 2.63451 18.7657 4.37731 20.1268L10.7854 5.40875L17.3524 20.08Z" fill="#CF2E2E"/>
    <path d="M10.8348 5.29834L10.123 26.6751L17.3474 20.0824L10.8348 5.29834Z" fill="#211F1F"/>
</svg>