<svg width="24" height="24" viewBox="0 0 24 24" fill="none" xmlns="http://www.w3.org/2000/svg">
<path fill-rule="evenodd" clip-rule="evenodd" d="M19.3303 5.79333L16.0983 2.65111C15.6697 2.23444 15.088 2 14.4823 2H6.28571C5.02286 2 4 2.99444 4 4.22222V19.7778C4 21.0056 5.02286 22 6.28571 22H17.7143C18.9771 22 20 21.0056 20 19.7778V7.36444C20 6.77556 19.7589 6.21 19.3303 5.79333Z" fill="#B35BF8" stroke="#B35BF8" stroke-width="1.5" stroke-linecap="round" stroke-linejoin="round"/>
<path d="M6.45703 14.7344H7.24805L8.27344 17.7842L9.2959 14.7344H10.0869L8.59277 19H7.95117L6.45703 14.7344ZM6 14.7344H6.80566L6.95508 17.8955V19H6V14.7344ZM9.73828 14.7344H10.5469V19H9.58887V17.8955L9.73828 14.7344Z" fill="white"/>
<path d="M12.9375 17.5176H11.8652V16.7764H12.9375C13.0957 16.7764 13.2227 16.75 13.3184 16.6973C13.416 16.6445 13.4873 16.5723 13.5322 16.4805C13.5791 16.3867 13.6025 16.2812 13.6025 16.1641C13.6025 16.043 13.5791 15.9307 13.5322 15.8271C13.4873 15.7217 13.416 15.6367 13.3184 15.5723C13.2227 15.5078 13.0957 15.4756 12.9375 15.4756H12.2109V19H11.2559V14.7344H12.9375C13.2773 14.7344 13.5684 14.7959 13.8105 14.9189C14.0547 15.042 14.2412 15.2109 14.3701 15.4258C14.501 15.6387 14.5664 15.8828 14.5664 16.1582C14.5664 16.4336 14.501 16.6729 14.3701 16.876C14.2412 17.0791 14.0547 17.2373 13.8105 17.3506C13.5684 17.4619 13.2773 17.5176 12.9375 17.5176Z" fill="white"/>
<path d="M15.9551 16.4775H16.4209C16.5537 16.4775 16.6631 16.4541 16.749 16.4072C16.8369 16.3604 16.9014 16.2939 16.9424 16.208C16.9854 16.1221 17.0068 16.0215 17.0068 15.9062C17.0068 15.8066 16.9873 15.7178 16.9482 15.6396C16.9092 15.5615 16.8496 15.5 16.7695 15.4551C16.6914 15.4082 16.5898 15.3848 16.4648 15.3848C16.375 15.3848 16.2891 15.4033 16.207 15.4404C16.127 15.4756 16.0615 15.5273 16.0107 15.5957C15.96 15.6621 15.9346 15.7422 15.9346 15.8359H15.0176C15.0176 15.5977 15.082 15.3916 15.2109 15.2178C15.3418 15.0439 15.5146 14.9102 15.7295 14.8164C15.9463 14.7207 16.1826 14.6729 16.4385 14.6729C16.7334 14.6729 16.9922 14.7197 17.2148 14.8135C17.4395 14.9053 17.6133 15.042 17.7363 15.2236C17.8613 15.4033 17.9238 15.626 17.9238 15.8916C17.9238 16.0303 17.8906 16.1641 17.8242 16.293C17.7598 16.4199 17.667 16.5332 17.5459 16.6328C17.4268 16.7305 17.2842 16.8086 17.1182 16.8672C16.9541 16.9238 16.7715 16.9521 16.5703 16.9521H15.9551V16.4775ZM15.9551 17.166V16.7002H16.5703C16.793 16.7002 16.9922 16.7256 17.168 16.7764C17.3438 16.8271 17.4932 16.9004 17.6162 16.9961C17.7393 17.0918 17.833 17.208 17.8975 17.3447C17.9619 17.4814 17.9941 17.6338 17.9941 17.8018C17.9941 18.001 17.9551 18.1787 17.877 18.335C17.7988 18.4912 17.6895 18.623 17.5488 18.7305C17.4082 18.8379 17.2432 18.9199 17.0537 18.9766C16.8643 19.0312 16.6592 19.0586 16.4385 19.0586C16.2607 19.0586 16.084 19.0342 15.9082 18.9854C15.7324 18.9365 15.5732 18.8623 15.4307 18.7627C15.2881 18.6611 15.1738 18.5332 15.0879 18.3789C15.002 18.2227 14.959 18.0371 14.959 17.8223H15.876C15.876 17.9219 15.9014 18.0117 15.9521 18.0918C16.0049 18.1699 16.0762 18.2324 16.166 18.2793C16.2578 18.3242 16.3574 18.3467 16.4648 18.3467C16.5938 18.3467 16.7031 18.3232 16.793 18.2764C16.8848 18.2275 16.9541 18.1611 17.001 18.0771C17.0498 17.9932 17.0742 17.8965 17.0742 17.7871C17.0742 17.6387 17.0479 17.5195 16.9951 17.4297C16.9443 17.3379 16.8701 17.2715 16.7725 17.2305C16.6748 17.1875 16.5576 17.166 16.4209 17.166H15.9551Z" fill="white"/>
<path d="M20 6.94908C20 6.9772 19.9772 7 19.9491 7H16C15.448 7 15 6.552 15 6V2.23182C15 2.10379 15.1038 2 15.2318 2C15.7237 2 16.1954 2.19539 16.5432 2.54319L18 4L19.3289 5.3289C19.7586 5.7586 20 6.3414 20 6.94908Z" fill="#8129C6" stroke="#8129C6" stroke-width="1.5" stroke-linecap="round" stroke-linejoin="round"/>
</svg>
