<svg xmlns="http://www.w3.org/2000/svg" width="16" height="16" viewBox="0 0 16 16" fill="none">
    <path d="M4.71855 14.5387C6.52389 14.5387 7.98789 13.0747 7.98789 11.2693C7.98789 9.464 6.52455 8 4.71855 8C2.91255 8 1.44922 9.464 1.44922 11.2693" stroke="white" stroke-linecap="round" stroke-linejoin="round"/>
    <path d="M4.72216 14.5422C4.23016 14.5422 3.76416 14.4335 3.3455 14.2395L1.3335 14.6669L1.75416 12.6509C1.55883 12.2309 1.4495 11.7629 1.4495 11.2695" stroke="white" stroke-linecap="round" stroke-linejoin="round"/>
    <path d="M4.37133 8.01854C4.13267 7.47121 4 6.87454 4 6.24854C4 3.57054 6.39867 1.42188 9.33333 1.42188C12.268 1.42188 14.6667 3.57054 14.6667 6.24854C14.6667 7.83121 13.8253 9.22454 12.534 10.1032C12.5347 10.6072 12.5333 11.2865 12.5333 11.9999L10.4407 10.9692C10.0827 11.0379 9.71267 11.0752 9.33333 11.0752C8.862 11.0752 8.40467 11.0192 7.96867 10.9145" stroke="white" stroke-linecap="round" stroke-linejoin="round"/>
</svg>