<svg xmlns="http://www.w3.org/2000/svg" width="30" height="28" viewBox="0 0 30 28" fill="none">
  <path d="M16.9488 20.2805C16.7079 20.6965 16.3115 20.9996 15.8469 21.123L7.08155 23.4806C6.11167 23.7398 5.11484 23.1657 4.85229 22.1967L1.56091 9.91829C1.30484 8.94882 1.87773 7.95407 2.84478 7.68902L8.49988 5.83325" stroke="#BDBDBD" stroke-width="1.5" stroke-linecap="round" stroke-linejoin="round"/>
  <path d="M13.4101 20.2805C13.651 20.6965 14.0474 20.9996 14.512 21.123L23.2773 23.4806C24.2472 23.7398 25.2441 23.1657 25.5066 22.1967L28.798 9.91829C29.054 8.94882 28.4812 7.95407 27.5141 7.68902L21.3332 5.83325" stroke="#BDBDBD" stroke-width="1.5" stroke-linecap="round" stroke-linejoin="round"/>
  <rect x="8.63544" y="3.49976" width="12.709" height="16.3401" rx="1.55556" stroke="#BDBDBD" stroke-width="1.5" stroke-linecap="round" stroke-linejoin="round"/>
  <path d="M14.9234 7.00415C15.8901 7.00415 16.6734 7.78745 16.6734 8.75415C16.6734 9.72085 15.8901 10.5042 14.9234 10.5042C13.9567 10.5042 13.1734 9.72085 13.1734 8.75415C13.1734 7.78745 13.9567 7.00415 14.9234 7.00415" stroke="#BDBDBD" stroke-width="1.5" stroke-linecap="round" stroke-linejoin="round"/>
  <path d="M18.4165 15.1666C18.3146 14.6548 18.1568 14.1944 17.9545 13.8195V13.8195C17.6131 13.1848 17.1659 12.8333 16.6992 12.8333C15.9214 12.8333 13.9116 12.8333 13.1339 12.8333C12.6672 12.8333 12.2208 13.1864 11.8785 13.8195V13.8195C11.6763 14.1944 11.5184 14.6548 11.4165 15.1666" stroke="#BDBDBD" stroke-width="1.5" stroke-linecap="round" stroke-linejoin="round"/>
</svg>