<svg xmlns="http://www.w3.org/2000/svg" width="28" height="28" viewBox="0 0 28 28" fill="none">
  <path d="M8.25768 25.4427C11.417 25.4427 13.979 22.8807 13.979 19.7213C13.979 16.562 11.4182 14 8.25768 14C5.09718 14 2.53635 16.562 2.53635 19.7213" stroke="#BDBDBD" stroke-width="1.5" stroke-linecap="round" stroke-linejoin="round"/>
  <path d="M8.26351 25.4486C7.40251 25.4486 6.58701 25.2584 5.85434 24.9189L2.33334 25.6668L3.06951 22.1388C2.72768 21.4038 2.53634 20.5848 2.53634 19.7214" stroke="#BDBDBD" stroke-width="1.5" stroke-linecap="round" stroke-linejoin="round"/>
  <path d="M7.64983 14.0327C7.23217 13.0749 7 12.0307 7 10.9352C7 6.24869 11.1977 2.48853 16.3333 2.48853C21.469 2.48853 25.6667 6.24869 25.6667 10.9352C25.6667 13.7049 24.1943 16.1432 21.9345 17.6809C21.9357 18.5629 21.9333 19.7517 21.9333 21L18.2712 19.1964C17.6447 19.3165 16.9972 19.3819 16.3333 19.3819C15.5085 19.3819 14.7082 19.2839 13.9452 19.1007" stroke="#BDBDBD" stroke-width="1.5" stroke-linecap="round" stroke-linejoin="round"/>
</svg>