<svg xmlns="http://www.w3.org/2000/svg" width="16" height="16" viewBox="0 0 16 16" fill="none">
  <path d="M5.99916 5.34397H10.0008" stroke="white" stroke-linecap="round" stroke-linejoin="round"/>
  <path d="M5.99916 7.99998H8" stroke="white" stroke-linecap="round" stroke-linejoin="round"/>
  <path d="M2.99792 2.66431H10.6678C11.4045 2.66431 12.0017 3.26151 12.0017 3.9982V10.6676" stroke="white" stroke-linecap="round" stroke-linejoin="round"/>
  <path d="M4.99875 13.3354H12.6686C13.4053 13.3354 14.0025 12.7382 14.0025 12.0015V11.3346C14.0025 10.9662 13.7039 10.6676 13.3356 10.6676H6.66611C6.29777 10.6676 5.99916 10.9662 5.99916 11.3346V12.335C5.99916 12.8875 5.55126 13.3354 4.99875 13.3354V13.3354C4.44623 13.3354 3.99833 12.8875 3.99833 12.335V3.66472C3.99833 3.11221 3.55043 2.66431 2.99791 2.66431V2.66431C2.4454 2.66431 1.9975 3.11221 1.9975 3.66472V5.33208C1.9975 5.70043 2.2961 5.99903 2.66444 5.99903H3.99833" stroke="white" stroke-linecap="round" stroke-linejoin="round"/>
</svg>