<svg xmlns="http://www.w3.org/2000/svg" width="16" height="16" viewBox="0 0 16 16" fill="none">
  <path fill-rule="evenodd" clip-rule="evenodd" d="M12.0017 9.3337H3.99833C3.26136 9.3337 2.66444 8.73679 2.66444 7.99981V3.3312C2.66444 2.59423 3.26136 1.99731 3.99833 1.99731H12.0017C12.7386 1.99731 13.3356 2.59423 13.3356 3.3312V7.99981C13.3356 8.73679 12.7386 9.3337 12.0017 9.3337Z" stroke="white" stroke-linecap="round" stroke-linejoin="round"/>
  <path fill-rule="evenodd" clip-rule="evenodd" d="M12.0964 9.33374H3.90363C3.30804 9.33374 2.78449 9.72857 2.62109 10.3015L2.04952 12.3023C1.80609 13.154 2.44569 14.0024 3.33205 14.0024H12.6679C13.5543 14.0024 14.1939 13.154 13.9505 12.3023L13.3789 10.3015C13.2148 9.72857 12.692 9.33374 12.0964 9.33374Z" stroke="white" stroke-linecap="round" stroke-linejoin="round"/>
  <path d="M6.66611 12.0014H9.33389" stroke="white" stroke-linecap="round" stroke-linejoin="round"/>
</svg>