<svg xmlns="http://www.w3.org/2000/svg" width="24" height="24" viewBox="0 0 24 24" fill="none">
    <path fill-rule="evenodd" clip-rule="evenodd" d="M19.3303 5.79333L16.0983 2.65111C15.6697 2.23444 15.088 2 14.4823 2H6.28571C5.02286 2 4 2.99444 4 4.22222V19.7778C4 21.0056 5.02286 22 6.28571 22H17.7143C18.9771 22 20 21.0056 20 19.7778V7.36444C20 6.77556 19.7589 6.21 19.3303 5.79333Z" fill="#F45656" stroke="#F45656" stroke-width="1.5" stroke-linecap="round" stroke-linejoin="round"/>
    <path d="M8.18164 17.5176H7.10938V16.7764H8.18164C8.33984 16.7764 8.4668 16.75 8.5625 16.6973C8.66016 16.6445 8.73145 16.5723 8.77637 16.4805C8.82324 16.3867 8.84668 16.2812 8.84668 16.1641C8.84668 16.043 8.82324 15.9307 8.77637 15.8271C8.73145 15.7217 8.66016 15.6367 8.5625 15.5723C8.4668 15.5078 8.33984 15.4756 8.18164 15.4756H7.45508V19H6.5V14.7344H8.18164C8.52148 14.7344 8.8125 14.7959 9.05469 14.9189C9.29883 15.042 9.48535 15.2109 9.61426 15.4258C9.74512 15.6387 9.81055 15.8828 9.81055 16.1582C9.81055 16.4336 9.74512 16.6729 9.61426 16.876C9.48535 17.0791 9.29883 17.2373 9.05469 17.3506C8.8125 17.4619 8.52148 17.5176 8.18164 17.5176Z" fill="white"/>
    <path d="M11.7412 19H10.8037L10.8096 18.2617H11.7412C11.9541 18.2617 12.1338 18.2129 12.2803 18.1152C12.4268 18.0156 12.5381 17.8691 12.6143 17.6758C12.6904 17.4805 12.7285 17.2432 12.7285 16.9639V16.7676C12.7285 16.5566 12.707 16.3711 12.6641 16.2109C12.6211 16.0488 12.5576 15.9131 12.4736 15.8037C12.3896 15.6943 12.2852 15.6123 12.1602 15.5576C12.0371 15.5029 11.8955 15.4756 11.7354 15.4756H10.7861V14.7344H11.7354C12.0244 14.7344 12.2881 14.7832 12.5264 14.8809C12.7666 14.9785 12.9736 15.1182 13.1475 15.2998C13.3232 15.4814 13.459 15.6963 13.5547 15.9443C13.6504 16.1924 13.6982 16.4688 13.6982 16.7734V16.9639C13.6982 17.2666 13.6504 17.543 13.5547 17.793C13.459 18.041 13.3232 18.2559 13.1475 18.4375C12.9736 18.6172 12.7676 18.7559 12.5293 18.8535C12.291 18.9512 12.0283 19 11.7412 19ZM11.3457 14.7344V19H10.3906V14.7344H11.3457Z" fill="white"/>
    <path d="M15.2363 14.7344V19H14.2812V14.7344H15.2363ZM16.915 16.5332V17.2715H14.9697V16.5332H16.915ZM17.1025 14.7344V15.4756H14.9697V14.7344H17.1025Z" fill="white"/>
    <path d="M20 6.94908C20 6.9772 19.9772 7 19.9491 7H16C15.448 7 15 6.552 15 6V2.23182C15 2.10379 15.1038 2 15.2318 2C15.7237 2 16.1954 2.19539 16.5432 2.54319L18 4L19.3289 5.3289C19.7586 5.7586 20 6.3414 20 6.94908Z" fill="#CC2E2E" stroke="#CC2E2E" stroke-width="1.5" stroke-linecap="round" stroke-linejoin="round"/>
</svg>