<svg width="24" height="24" viewBox="0 0 24 24" fill="none" xmlns="http://www.w3.org/2000/svg">
<path fill-rule="evenodd" clip-rule="evenodd" d="M19.3303 5.79333L16.0983 2.65111C15.6697 2.23444 15.088 2 14.4823 2H6.28571C5.02286 2 4 2.99444 4 4.22222V19.7778C4 21.0056 5.02286 22 6.28571 22H17.7143C18.9771 22 20 21.0056 20 19.7778V7.36444C20 6.77556 19.7589 6.21 19.3303 5.79333Z" fill="#51C171" stroke="#51C171" stroke-width="1.5" stroke-linecap="round" stroke-linejoin="round"/>
<path d="M7.88184 17.5176H6.80957V16.7764H7.88184C8.04004 16.7764 8.16699 16.75 8.2627 16.6973C8.36035 16.6445 8.43164 16.5723 8.47656 16.4805C8.52344 16.3867 8.54688 16.2812 8.54688 16.1641C8.54688 16.043 8.52344 15.9307 8.47656 15.8271C8.43164 15.7217 8.36035 15.6367 8.2627 15.5723C8.16699 15.5078 8.04004 15.4756 7.88184 15.4756H7.15527V19H6.2002V14.7344H7.88184C8.22168 14.7344 8.5127 14.7959 8.75488 14.9189C8.99902 15.042 9.18555 15.2109 9.31445 15.4258C9.44531 15.6387 9.51074 15.8828 9.51074 16.1582C9.51074 16.4336 9.44531 16.6729 9.31445 16.876C9.18555 17.0791 8.99902 17.2373 8.75488 17.3506C8.5127 17.4619 8.22168 17.5176 7.88184 17.5176Z" fill="white"/>
<path d="M13.6094 14.7344V19H12.6572L11.0459 16.2432V19H10.0908V14.7344H11.0459L12.6602 17.4912V14.7344H13.6094Z" fill="white"/>
<path d="M17.752 16.7471V18.4668C17.6816 18.5469 17.5742 18.6328 17.4297 18.7246C17.2871 18.8164 17.1045 18.8955 16.8818 18.9619C16.6592 19.0264 16.3936 19.0586 16.085 19.0586C15.8057 19.0586 15.5518 19.0137 15.3232 18.9238C15.0947 18.832 14.8984 18.6982 14.7344 18.5225C14.5703 18.3447 14.4434 18.1279 14.3535 17.8721C14.2656 17.6162 14.2217 17.3232 14.2217 16.9932V16.7412C14.2217 16.4111 14.2656 16.1182 14.3535 15.8623C14.4414 15.6064 14.5654 15.3906 14.7256 15.2148C14.8857 15.0371 15.0762 14.9023 15.2969 14.8105C15.5176 14.7188 15.7617 14.6729 16.0293 14.6729C16.4102 14.6729 16.7217 14.7344 16.9639 14.8574C17.2061 14.9785 17.3896 15.1465 17.5146 15.3613C17.6416 15.5762 17.7197 15.8232 17.749 16.1025H16.8291C16.8096 15.96 16.7705 15.8369 16.7119 15.7334C16.6553 15.6299 16.5742 15.5508 16.4688 15.4961C16.3633 15.4395 16.2266 15.4111 16.0586 15.4111C15.9238 15.4111 15.8018 15.4395 15.6924 15.4961C15.585 15.5508 15.4941 15.6338 15.4199 15.7451C15.3457 15.8564 15.2891 15.9951 15.25 16.1611C15.2109 16.3252 15.1914 16.5166 15.1914 16.7354V16.9932C15.1914 17.2119 15.2109 17.4043 15.25 17.5703C15.291 17.7363 15.3506 17.875 15.4287 17.9863C15.5068 18.0957 15.6055 18.1787 15.7246 18.2354C15.8457 18.292 15.9863 18.3203 16.1465 18.3203C16.2715 18.3203 16.377 18.3105 16.4629 18.291C16.5488 18.2695 16.6191 18.2432 16.6738 18.2119C16.7285 18.1787 16.7695 18.1484 16.7969 18.1211V17.4121H16.0381V16.7471H17.752Z" fill="white"/>
<path d="M20 6.94908C20 6.9772 19.9772 7 19.9491 7H16C15.448 7 15 6.552 15 6V2.23182C15 2.10379 15.1038 2 15.2318 2C15.7237 2 16.1954 2.19539 16.5432 2.54319L18 4L19.3289 5.3289C19.7586 5.7586 20 6.3414 20 6.94908Z" fill="#299949" stroke="#299949" stroke-width="1.5" stroke-linecap="round" stroke-linejoin="round"/>
</svg>
