<svg xmlns="http://www.w3.org/2000/svg" width="20" height="20" viewBox="0 0 20 20" fill="none">
  <path fill-rule="evenodd" clip-rule="evenodd" d="M15.4444 18.3333H4.55542C3.41383 18.3333 2.45797 17.425 2.34429 16.2323L1.67762 9.23232C1.6151 8.57634 1.81977 7.92321 2.24105 7.43437C2.66232 6.94554 3.26088 6.66663 3.88875 6.66663H16.111C16.7389 6.66663 17.3375 6.94554 17.7587 7.43437C18.18 7.92321 18.3847 8.57634 18.3222 9.23232L17.6555 16.2323C17.5418 17.425 16.586 18.3333 15.4444 18.3333V18.3333Z" stroke="white" stroke-linecap="round" stroke-linejoin="round"/>
  <path d="M3.33325 6.24996L3.33325 5.83329C3.33313 5.39123 3.50869 4.96723 3.82127 4.65465C4.13386 4.34206 4.55785 4.1665 4.99992 4.16663H14.9999C15.442 4.1665 15.866 4.34206 16.1786 4.65465C16.4912 4.96723 16.6667 5.39123 16.6666 5.83329V6.24996" stroke="white" stroke-linecap="round" stroke-linejoin="round"/>
  <path d="M4.77814 4.16663V3.33329C4.77802 2.89123 4.95357 2.46723 5.26616 2.15465C5.57875 1.84206 6.00274 1.6665 6.4448 1.66663H13.5565C13.9985 1.6665 14.4225 1.84206 14.7351 2.15465C15.0477 2.46723 15.2233 2.89123 15.2231 3.33329V4.16663" stroke="white" stroke-linecap="round" stroke-linejoin="round"/>
  <path d="M6.66656 12.5H13.3332M9.9999 9.16663V15.8333" stroke="white" stroke-linecap="round" stroke-linejoin="round"/>
</svg>