<svg xmlns="http://www.w3.org/2000/svg" width="21" height="20" viewBox="0 0 21 20" fill="none">
  <path fill-rule="evenodd" clip-rule="evenodd" d="M9.54665 10.9533C8.57165 9.97831 7.83665 8.88664 7.34831 7.77914C7.24498 7.54497 7.30581 7.27081 7.48665 7.08997L8.16915 6.40831C8.72831 5.84914 8.72831 5.05831 8.23998 4.56997L7.26165 3.59164C6.61081 2.94081 5.55581 2.94081 4.90498 3.59164L4.36165 4.13497C3.74415 4.75247 3.48665 5.64331 3.65331 6.52664C4.06498 8.70414 5.32998 11.0883 7.37081 13.1291C9.41165 15.17 11.7958 16.435 13.9733 16.8466C14.8566 17.0133 15.7475 16.7558 16.365 16.1383L16.9075 15.5958C17.5583 14.945 17.5583 13.89 16.9075 13.2391L15.93 12.2616C15.4416 11.7733 14.65 11.7733 14.1625 12.2616L13.41 13.015C13.2291 13.1958 12.955 13.2566 12.7208 13.1533C11.6133 12.6641 10.5216 11.9283 9.54665 10.9533Z" stroke="white" stroke-linecap="round" stroke-linejoin="round"/>
</svg>