<svg width="20" height="20" viewBox="0 0 20 20" fill="none" xmlns="http://www.w3.org/2000/svg">
<path fill-rule="evenodd" clip-rule="evenodd" d="M2.49695 13.9951C4.33866 13.9951 5.83167 15.4881 5.83167 17.3298C5.83167 15.4881 7.32468 13.9951 9.16639 13.9951C7.32468 13.9951 5.83167 12.5021 5.83167 10.6604C5.83167 12.5021 4.33866 13.9951 2.49695 13.9951Z" fill="white" stroke="white" stroke-width="1.5" stroke-linecap="round" stroke-linejoin="round"/>
<path fill-rule="evenodd" clip-rule="evenodd" d="M10.8337 11.4939C12.6755 11.4939 14.1685 12.9869 14.1685 14.8286C14.1685 12.9869 15.6615 11.4939 17.5032 11.4939C15.6615 11.4939 14.1685 10.0009 14.1685 8.15918C14.1685 10.0009 12.6755 11.4939 10.8337 11.4939Z" fill="white" stroke="white" stroke-width="1.5" stroke-linecap="round" stroke-linejoin="round"/>
<path fill-rule="evenodd" clip-rule="evenodd" d="M5.83167 5.65821C7.67338 5.65821 9.16639 7.15121 9.16639 8.99293C9.16639 7.15121 10.6594 5.65821 12.5011 5.65821C10.6594 5.65821 9.16639 4.1652 9.16639 2.32349C9.16639 4.1652 7.67338 5.65821 5.83167 5.65821Z" fill="white" stroke="white" stroke-width="1.5" stroke-linecap="round" stroke-linejoin="round"/>
</svg>
