<svg xmlns="http://www.w3.org/2000/svg" width="20" height="20" viewBox="0 0 20 20" fill="none">
  <path fill-rule="evenodd" clip-rule="evenodd" d="M6.17419 11.8717L4.89502 5.83337H15.4167C15.9592 5.83337 16.3567 6.34254 16.225 6.86921L15.1017 11.3625C14.9309 12.045 14.3509 12.5467 13.6509 12.6167L7.97085 13.185C7.12419 13.2692 6.35002 12.7034 6.17419 11.8717Z" fill="white" stroke="white" stroke-width="1.5" stroke-linecap="round" stroke-linejoin="round"/>
  <path d="M4.89484 5.83337L4.35317 3.33337H2.9165" stroke="white" stroke-width="1.5" stroke-linecap="round" stroke-linejoin="round"/>
  <path d="M14.2573 16.0559C14.089 16.0559 13.9523 16.1925 13.954 16.3609C13.954 16.5292 14.0906 16.6659 14.259 16.6659C14.4273 16.6659 14.564 16.5292 14.564 16.3609C14.5631 16.1925 14.4265 16.0559 14.2573 16.0559" stroke="white" stroke-width="1.5" stroke-linecap="round" stroke-linejoin="round"/>
  <path d="M7.24746 16.0558C7.07912 16.0558 6.94246 16.1925 6.94412 16.3608C6.94246 16.53 7.07996 16.6667 7.24829 16.6667C7.41662 16.6667 7.55329 16.53 7.55329 16.3617C7.55329 16.1925 7.41662 16.0558 7.24746 16.0558" stroke="white" stroke-width="1.5" stroke-linecap="round" stroke-linejoin="round"/>
</svg>