<svg xmlns="http://www.w3.org/2000/svg" width="58" height="80" viewBox="0 0 58 80" fill="none">
    <g clip-path="url(#clip0_242_5957)">
        <path d="M40 80C62.0914 80 80 62.0914 80 40C80 17.9086 62.0914 0 40 0C17.9086 0 0 17.9086 0 40C0 62.0914 17.9086 80 40 80Z" fill="url(#paint0_linear_242_5957)"/>
        <path fill-rule="evenodd" clip-rule="evenodd" d="M18.1074 39.5778C29.7682 34.4973 37.5439 31.148 41.4345 29.5298C52.5429 24.9094 54.8511 24.1068 56.3556 24.0803C56.6865 24.0745 57.4264 24.1565 57.9056 24.5454C58.3103 24.8737 58.4216 25.3173 58.4749 25.6286C58.5282 25.9399 58.5945 26.6491 58.5418 27.2033C57.9398 33.5282 55.3351 48.8772 54.01 55.9612C53.4493 58.9587 52.3452 59.9638 51.2763 60.0621C48.9535 60.2759 47.1896 58.527 44.9398 57.0522C41.4192 54.7445 39.4304 53.3079 36.0131 51.056C32.0639 48.4535 34.624 47.0231 36.8747 44.6855C37.4637 44.0737 47.6983 34.7645 47.8964 33.92C47.9212 33.8144 47.9442 33.4207 47.7103 33.2128C47.4764 33.005 47.1312 33.076 46.8821 33.1326C46.529 33.2127 40.9049 36.93 30.0099 44.2845C28.4135 45.3807 26.9675 45.9148 25.672 45.8868C24.2438 45.8559 21.4965 45.0793 19.4542 44.4154C16.9492 43.6011 14.9583 43.1706 15.1316 41.7877C15.2219 41.0674 16.2138 40.3308 18.1074 39.5778Z" fill="white"/>
    </g>
    <defs>
        <linearGradient id="paint0_linear_242_5957" x1="40" y1="0" x2="40" y2="79.4067" gradientUnits="userSpaceOnUse">
            <stop stop-color="#2AABEE"/>
            <stop offset="1" stop-color="#229ED9"/>
        </linearGradient>
        <clipPath id="clip0_242_5957">
            <rect width="80" height="80" fill="white"/>
        </clipPath>
    </defs>
</svg>
