<svg xmlns="http://www.w3.org/2000/svg" width="16" height="17" viewBox="0 0 16 17" fill="none">
  <path d="M7.99929 5.83341C7.90729 5.83341 7.83263 5.90808 7.83329 6.00008C7.83329 6.09208 7.90796 6.16675 7.99996 6.16675C8.09196 6.16675 8.16663 6.09208 8.16663 6.00008C8.16663 5.90808 8.09196 5.83341 7.99929 5.83341" stroke="white" stroke-linecap="round" stroke-linejoin="round"/>
  <path fill-rule="evenodd" clip-rule="evenodd" d="M8 14.5V14.5C4.686 14.5 2 11.814 2 8.5V8.5C2 5.186 4.686 2.5 8 2.5V2.5C11.314 2.5 14 5.186 14 8.5V8.5C14 11.814 11.314 14.5 8 14.5Z" stroke="white" stroke-linecap="round" stroke-linejoin="round"/>
  <path d="M7.99996 8.5V11.8333" stroke="white" stroke-linecap="round" stroke-linejoin="round"/>
</svg>