<svg width="20" height="20" viewBox="0 0 20 20" fill="none" xmlns="http://www.w3.org/2000/svg">
<path d="M13.182 3.31802C14.9393 5.07538 14.9393 7.92463 13.182 9.68198C11.4246 11.4393 8.57537 11.4393 6.81802 9.68198C5.06066 7.92462 5.06066 5.07537 6.81802 3.31802C8.57538 1.56066 11.4246 1.56066 13.182 3.31802" stroke="white" stroke-width="1.5" stroke-linecap="round" stroke-linejoin="round"/>
<path d="M13.182 10.318C14.9393 12.0754 14.9393 14.9246 13.182 16.682C11.4246 18.4393 8.57537 18.4393 6.81802 16.682C5.06066 14.9246 5.06066 12.0754 6.81802 10.318C8.57538 8.56066 11.4246 8.56066 13.182 10.318" stroke="white" stroke-width="1.5" stroke-linecap="round" stroke-linejoin="round"/>
<path d="M3.31802 6.81802C5.07538 5.06066 7.92463 5.06066 9.68198 6.81802C11.4393 8.57538 11.4393 11.4246 9.68198 13.182C7.92462 14.9393 5.07537 14.9393 3.31802 13.182C1.56066 11.4246 1.56066 8.57537 3.31802 6.81802" stroke="white" stroke-width="1.5" stroke-linecap="round" stroke-linejoin="round"/>
<path d="M10.318 6.81802C12.0754 5.06066 14.9246 5.06066 16.682 6.81802C18.4393 8.57538 18.4393 11.4246 16.682 13.182C14.9246 14.9393 12.0754 14.9393 10.318 13.182C8.56066 11.4246 8.56066 8.57537 10.318 6.81802" stroke="white" stroke-width="1.5" stroke-linecap="round" stroke-linejoin="round"/>
<rect x="9" y="9" width="2" height="2" fill="white"/>
</svg>
