<svg xmlns="http://www.w3.org/2000/svg" width="20" height="20" viewBox="0 0 20 20" fill="none">
  <path fill-rule="evenodd" clip-rule="evenodd" d="M13.3333 17.5H6.66667C4.36583 17.5 2.5 15.6342 2.5 13.3333V6.66667C2.5 4.36583 4.36583 2.5 6.66667 2.5H13.3333C15.6342 2.5 17.5 4.36583 17.5 6.66667V13.3333C17.5 15.6342 15.6342 17.5 13.3333 17.5Z" fill="#6F9FFC" stroke="#6F9FFC" stroke-width="1.5" stroke-linecap="round" stroke-linejoin="round"/>
  <path d="M11.6662 7.47834C12.8229 8.63501 12.8229 10.51 11.6662 11.6667C10.5095 12.8233 8.63452 12.8233 7.47785 11.6667C6.32118 10.51 6.32118 8.63501 7.47785 7.47834C8.63452 6.32167 10.5095 6.32167 11.6662 7.47834" stroke="#222222" stroke-width="1.5" stroke-linecap="round" stroke-linejoin="round"/>
  <path fill-rule="evenodd" clip-rule="evenodd" d="M13.3337 13.3333L11.667 11.6666L13.3337 13.3333Z" stroke="#222222" stroke-width="1.5" stroke-linecap="round" stroke-linejoin="round"/>
</svg>