<svg width="20" height="20" viewBox="0 0 20 20" fill="none" xmlns="http://www.w3.org/2000/svg">
<g id="Group">
<g id="Group_2">
<path id="Path" fill-rule="evenodd" clip-rule="evenodd" d="M14.1686 17.5032H5.83179C3.99019 17.5032 2.49707 16.0101 2.49707 14.1685V5.83167C2.49707 3.99007 3.99019 2.49695 5.83179 2.49695H14.1686C16.0102 2.49695 17.5033 3.99007 17.5033 5.83167V14.1685C17.5033 16.0101 16.0102 17.5032 14.1686 17.5032Z" fill="#FA6262" stroke="#FA6262" stroke-linecap="round" stroke-linejoin="round"/>
<path id="Path_2" fill-rule="evenodd" clip-rule="evenodd" d="M13.6128 15.0022H6.3881C6.08214 15.0022 5.83203 14.7521 5.83203 14.4461V13.9943C5.83203 12.7146 6.87913 11.6675 8.15967 11.6675H11.842C13.1217 11.6675 14.1688 12.7146 14.1688 13.9951V14.447C14.1688 14.7521 13.9187 15.0022 13.6128 15.0022Z" stroke="#222222" stroke-width="1.5" stroke-linecap="round" stroke-linejoin="round"/>
<path id="Path_3" fill-rule="evenodd" clip-rule="evenodd" d="M10.0006 9.58317C8.73844 9.58317 7.70801 8.55607 7.70801 7.29972C7.70801 6.04336 8.73844 4.99792 10.0006 4.99792C11.2628 4.99792 12.2933 6.02502 12.2933 7.28138C12.2933 8.53773 11.2628 9.58317 10.0006 9.58317Z" stroke="#222222" stroke-width="1.5" stroke-linecap="round" stroke-linejoin="round"/>
</g>
</g>
</svg>
