<svg xmlns="http://www.w3.org/2000/svg" width="20" height="20" viewBox="0 0 20 20" fill="none">
  <path fill-rule="evenodd" clip-rule="evenodd" d="M13.7044 16.6666H6.29695C4.66055 16.6666 3.33398 15.3874 3.33398 13.8095V8.0952C3.33398 7.30622 3.99727 6.66663 4.81547 6.66663H15.1858C16.004 6.66663 16.6673 7.30622 16.6673 8.0952V13.8095C16.6673 15.3874 15.3408 16.6666 13.7044 16.6666Z" fill="#AF89FF" stroke="#AF89FF" stroke-width="1.5" stroke-linecap="round" stroke-linejoin="round"/>
  <path d="M6.66699 6.66659V4.99992C6.66699 4.07944 7.41318 3.33325 8.33366 3.33325H11.667C12.5875 3.33325 13.3337 4.07944 13.3337 4.99992V6.66659" stroke="#AF89FF" stroke-width="1.5" stroke-linecap="round" stroke-linejoin="round"/>
  <rect x="8.33398" y="9.16663" width="3.33333" height="2.5" rx="0.5" stroke="#222222" stroke-width="1.5" stroke-linecap="round" stroke-linejoin="round"/>
  <path d="M11.667 9.99988H14.1684C15.5499 9.99988 16.667 9.99988 16.667 9.99988" stroke="#222222" stroke-width="1.5" stroke-linecap="round" stroke-linejoin="round"/>
  <path d="M8.33398 9.99988H5.83267C4.45123 9.99988 3.33398 9.99988 3.33398 9.99988" stroke="#222222" stroke-width="1.5" stroke-linecap="round" stroke-linejoin="round"/>
</svg>