<svg width="20" height="20" viewBox="0 0 20 20" fill="none" xmlns="http://www.w3.org/2000/svg">
<path d="M4.11413 4.97583C3.22913 5.88416 2.58663 7.02583 2.27747 8.29916" stroke="white" stroke-width="1.5" stroke-linecap="round" stroke-linejoin="round"/>
<path d="M7.74158 17.0359C8.23408 17.1425 8.74491 17.2017 9.26991 17.2017C10.0132 17.2017 10.7307 17.0884 11.4057 16.8792" stroke="white" stroke-width="1.5" stroke-linecap="round" stroke-linejoin="round"/>
<path d="M2.27832 11.7009C2.58749 12.9743 3.22999 14.1159 4.11499 15.0243" stroke="white" stroke-width="1.5" stroke-linecap="round" stroke-linejoin="round"/>
<path d="M16.1708 12.0532C15.8217 13.2299 15.1767 14.2774 14.3275 15.1182" stroke="white" stroke-width="1.5" stroke-linecap="round" stroke-linejoin="round"/>
<path d="M14.3275 4.88159C15.1767 5.72243 15.8208 6.76993 16.1708 7.94659" stroke="white" stroke-width="1.5" stroke-linecap="round" stroke-linejoin="round"/>
<path d="M7.74158 2.96422C8.23408 2.85755 8.74491 2.79839 9.26991 2.79839C10.0132 2.79839 10.7307 2.91172 11.4057 3.12089" stroke="white" stroke-width="1.5" stroke-linecap="round" stroke-linejoin="round"/>
<path fill-rule="evenodd" clip-rule="evenodd" d="M17.9448 8.52694C18.7584 9.34053 18.7584 10.6596 17.9448 11.4732C17.1312 12.2868 15.8121 12.2868 14.9985 11.4732C14.1849 10.6596 14.1849 9.34053 14.9985 8.52694C15.8121 7.71335 17.1312 7.71335 17.9448 8.52694Z" fill="white"/>
<path d="M17.9448 8.52694C18.7584 9.34053 18.7584 10.6596 17.9448 11.4732C17.1312 12.2868 15.8121 12.2868 14.9985 11.4732C14.1849 10.6596 14.1849 9.34053 14.9985 8.52694C15.8121 7.71335 17.1312 7.71335 17.9448 8.52694" stroke="white" stroke-width="1.5" stroke-linecap="round" stroke-linejoin="round"/>
<path fill-rule="evenodd" clip-rule="evenodd" d="M7.35566 14.641C8.16926 15.4545 8.16926 16.7736 7.35566 17.5872C6.54207 18.4008 5.22298 18.4008 4.40939 17.5872C3.5958 16.7736 3.5958 15.4545 4.40939 14.641C5.22298 13.8274 6.54207 13.8274 7.35566 14.641Z" fill="white"/>
<path d="M7.35566 14.641C8.16926 15.4545 8.16926 16.7736 7.35566 17.5872C6.54207 18.4008 5.22298 18.4008 4.40939 17.5872C3.5958 16.7736 3.5958 15.4545 4.40939 14.641C5.22298 13.8274 6.54207 13.8274 7.35566 14.641" stroke="white" stroke-width="1.5" stroke-linecap="round" stroke-linejoin="round"/>
<path fill-rule="evenodd" clip-rule="evenodd" d="M7.35566 2.41268C8.16926 3.22628 8.16926 4.54537 7.35566 5.35896C6.54207 6.17255 5.22298 6.17255 4.40939 5.35896C3.5958 4.54537 3.5958 3.22628 4.40939 2.41268C5.22298 1.59909 6.54207 1.59909 7.35566 2.41268Z" fill="white"/>
<path d="M7.35566 2.41268C8.16926 3.22628 8.16926 4.54537 7.35566 5.35896C6.54207 6.17255 5.22298 6.17255 4.40939 5.35896C3.5958 4.54537 3.5958 3.22628 4.40939 2.41268C5.22298 1.59909 6.54207 1.59909 7.35566 2.41268" stroke="white" stroke-width="1.5" stroke-linecap="round" stroke-linejoin="round"/>
</svg>
