<svg xmlns="http://www.w3.org/2000/svg" width="123" height="27" viewBox="0 0 123 27" fill="none">
    <path d="M36.8272 5.4188H39.1305L34.078 18.7218C33.5497 20.1415 32.8067 21.2187 31.849 21.9537C30.9079 22.7052 29.8182 23.0392 28.5798 22.9557V20.9265C30.0989 21.0433 31.2133 20.1917 31.9232 18.3711L32.1462 17.8951L26.7471 5.4188H29.0504L33.2608 15.2395L36.8272 5.4188ZM50.8977 16.3669C49.6264 17.6363 48.0826 18.2708 46.2664 18.2708C44.45 18.2708 42.9062 17.6363 41.6349 16.3669C40.3799 15.0975 39.7526 13.5359 39.7526 11.682C39.7526 9.82809 40.3799 8.26649 41.6349 6.99711C42.9062 5.72774 44.45 5.09315 46.2664 5.09315C48.0826 5.09315 49.6264 5.72774 50.8977 6.99711C52.169 8.26649 52.8048 9.82809 52.8048 11.682C52.8048 13.5359 52.169 15.0975 50.8977 16.3669ZM46.2664 16.1413C47.5046 16.1413 48.5448 15.7154 49.3869 14.8636C50.229 14.012 50.65 12.9514 50.65 11.682C50.65 10.4126 50.229 9.35206 49.3869 8.5003C48.5448 7.64851 47.5046 7.22256 46.2664 7.22256C45.0445 7.22256 44.0125 7.64851 43.1704 8.5003C42.3283 9.35206 41.9072 10.4126 41.9072 11.682C41.9072 12.9514 42.3283 14.012 43.1704 14.8636C44.0125 15.7154 45.0445 16.1413 46.2664 16.1413ZM63.8895 5.4188H66.0441V17.9452H63.8895V16.1413C63.0144 17.561 61.677 18.2708 59.8772 18.2708C58.4241 18.2708 57.2603 17.8117 56.3852 16.8931C55.51 15.9576 55.0725 14.6967 55.0725 13.11V5.4188H57.2271V12.9846C57.2271 14.0035 57.4996 14.797 58.0445 15.3647C58.5893 15.9159 59.3406 16.1915 60.2982 16.1915C61.3716 16.1915 62.2384 15.8576 62.8987 15.1893C63.5592 14.5046 63.8895 13.4608 63.8895 12.0578V5.4188ZM75.4916 5.09315C76.9446 5.09315 78.1081 5.56074 78.9839 6.49609C79.8589 7.41465 80.2963 8.6673 80.2963 10.254V17.9452H78.1413V10.3793C78.1413 9.36041 77.8692 8.57544 77.3239 8.02426C76.7794 7.45644 76.0281 7.17249 75.0705 7.17249C73.9973 7.17249 73.1304 7.51486 72.47 8.19962C71.8097 8.86775 71.4792 9.90324 71.4792 11.3062V17.9452H69.3246V5.4188H71.4792V7.22256C72.3544 5.80298 73.6918 5.09315 75.4916 5.09315ZM84.8152 12.6841C85.0299 13.8032 85.533 14.6716 86.326 15.2895C87.1345 15.9076 88.1253 16.2166 89.2977 16.2166C90.9325 16.2166 92.121 15.6069 92.8646 14.3877L94.6972 15.4398C93.4916 17.3273 91.6754 18.2708 89.2483 18.2708C87.2836 18.2708 85.682 17.6529 84.4434 16.417C83.2217 15.1644 82.6109 13.5859 82.6109 11.682C82.6109 9.79465 83.2137 8.22469 84.4191 6.97204C85.6238 5.71946 87.1848 5.09315 89.0999 5.09315C90.9163 5.09315 92.394 5.74446 93.533 7.0472C94.689 8.33328 95.2667 9.88652 95.2667 11.7071C95.2667 12.0244 95.2415 12.35 95.1921 12.6841H84.8152ZM89.0999 7.1474C87.9439 7.1474 86.9864 7.48151 86.2264 8.14955C85.4674 8.80096 84.9966 9.67779 84.8152 10.7801H93.0874C92.906 9.59429 92.4434 8.69237 91.7005 8.0744C90.9577 7.45644 90.0907 7.1474 89.0999 7.1474ZM99.1172 8.80096C99.1172 9.28527 99.357 9.67779 99.8358 9.97838C100.315 10.2623 100.892 10.4961 101.57 10.6799C102.246 10.8469 102.923 11.0473 103.6 11.2812C104.277 11.4983 104.855 11.8825 105.334 12.4335C105.813 12.968 106.052 13.6612 106.052 14.513C106.052 15.6486 105.614 16.5589 104.739 17.2437C103.881 17.9286 102.775 18.2708 101.42 18.2708C100.216 18.2708 99.1836 18.0037 98.3248 17.4692C97.4662 16.9346 96.8552 16.2248 96.4925 15.3397L98.3492 14.2625C98.5478 14.8636 98.9196 15.3397 99.4639 15.6905C100.009 16.0413 100.661 16.2166 101.42 16.2166C102.131 16.2166 102.717 16.083 103.179 15.8157C103.642 15.5317 103.873 15.0975 103.873 14.513C103.873 14.0286 103.633 13.6444 103.154 13.3605C102.675 13.0598 102.098 12.8261 101.42 12.6591C100.744 12.4753 100.067 12.2665 99.3893 12.0327C98.713 11.7989 98.1352 11.4148 97.6558 10.8803C97.177 10.3458 96.938 9.66109 96.938 8.82596C96.938 7.74038 97.3504 6.84683 98.1758 6.14535C99.0184 5.44387 100.067 5.09315 101.322 5.09315C102.328 5.09315 103.22 5.32694 103.997 5.79462C104.789 6.24557 105.384 6.88018 105.78 7.6986L103.971 8.72573C103.526 7.65688 102.643 7.12242 101.322 7.12242C100.711 7.12242 100.191 7.27272 99.7612 7.57338C99.3319 7.85724 99.1172 8.26649 99.1172 8.80096ZM109.572 3.13902C109.16 3.13902 108.813 2.99704 108.532 2.71311C108.251 2.42917 108.111 2.08679 108.111 1.68594C108.111 1.28511 108.251 0.942711 108.532 0.658777C108.813 0.358154 109.16 0.207825 109.572 0.207825C109.968 0.207825 110.307 0.358154 110.588 0.658777C110.868 0.942711 111.008 1.28511 111.008 1.68594C111.008 2.08679 110.868 2.42917 110.588 2.71311C110.307 2.99704 109.968 3.13902 109.572 3.13902ZM108.482 17.9452V5.4188H110.637V17.9452H108.482ZM115.758 8.80096C115.758 9.28527 115.997 9.67779 116.476 9.97838C116.955 10.2623 117.532 10.4961 118.21 10.6799C118.887 10.8469 119.563 11.0473 120.24 11.2812C120.918 11.4983 121.495 11.8825 121.974 12.4335C122.453 12.968 122.693 13.6612 122.693 14.513C122.693 15.6486 122.254 16.5589 121.379 17.2437C120.521 17.9286 119.415 18.2708 118.061 18.2708C116.856 18.2708 115.824 18.0037 114.965 17.4692C114.106 16.9346 113.495 16.2248 113.132 15.3397L114.99 14.2625C115.188 14.8636 115.56 15.3397 116.105 15.6905C116.649 16.0413 117.301 16.2166 118.061 16.2166C118.771 16.2166 119.357 16.083 119.819 15.8157C120.282 15.5317 120.513 15.0975 120.513 14.513C120.513 14.0286 120.274 13.6444 119.795 13.3605C119.316 13.0598 118.738 12.8261 118.061 12.6591C117.384 12.4753 116.707 12.2665 116.03 12.0327C115.353 11.7989 114.775 11.4148 114.296 10.8803C113.818 10.3458 113.578 9.66109 113.578 8.82596C113.578 7.74038 113.991 6.84683 114.817 6.14535C115.658 5.44387 116.707 5.09315 117.962 5.09315C118.969 5.09315 119.86 5.32694 120.637 5.79462C121.429 6.24557 122.024 6.88018 122.42 7.6986L120.612 8.72573C120.166 7.65688 119.283 7.12242 117.962 7.12242C117.351 7.12242 116.831 7.27272 116.401 7.57338C115.972 7.85724 115.758 8.26649 115.758 8.80096Z" fill="white"/>
    <path d="M17.3524 20.08C19.0854 18.7061 20.351 16.819 20.972 14.6822C21.5933 12.5454 21.539 10.2657 20.8169 8.16163C20.0948 6.0576 18.7411 4.23428 16.9446 2.94644C15.1482 1.65861 12.9989 0.970611 10.7971 0.978584C8.59531 0.986575 6.45091 1.69012 4.66369 2.99094C2.87641 4.29172 1.5355 6.1248 0.828354 8.23406C0.121189 10.3433 0.0830845 12.6234 0.719345 14.7556C1.35564 16.8877 2.63451 18.7657 4.37731 20.1268L10.7854 5.40875L17.3524 20.08Z" fill="#CF2E2E"/>
    <path d="M10.8348 5.29846L10.123 26.6752L17.3474 20.0825L10.8348 5.29846Z" fill="white"/>
</svg>